# xmcd
#
# Track frame offsets: 
#        150
#        17320
#        33050
#        48630
#        69860
#        83900
#        103590
#        119390
#        136050
#        149795
#        167218
#        179116
#        195206
#        211757
#        224466
#        239233
#        255508
#        277464
#
# Disc length: 3981 seconds
#
# Revision: 0
# Processed by: cddbd v1.4PL0 Copyright (c) Steve Scherf et al.
# Submitted via: ExactAudioCopy v0.95a3
#
DISCID=0f0f8b12
DTITLE=陈百强 - 陈百强精选
DYEAR=1900
DGENRE=Pop
TTITLE0=今宵多珍重
TTITLE1=偏偏喜欢你
TTITLE2=念亲恩
TTITLE3=有了你
TTITLE4=相思河畔
TTITLE5=深爱着你
TTITLE6=画出彩虹
TTITLE7=恋爱预告
TTITLE8=几分钟的约会
TTITLE9=等
TTITLE10=突破
TTITLE11=喝彩
TTITLE12=摘星
TTITLE13=公益心
TTITLE14=不再问究竟
TTITLE15=眼泪为你流
TTITLE16=一生不可自决
TTITLE17=一生何求
EXTD=
EXTT0=
EXTT1=
EXTT2=
EXTT3=
EXTT4=
EXTT5=
EXTT6=
EXTT7=
EXTT8=
EXTT9=
EXTT10=
EXTT11=
EXTT12=
EXTT13=
EXTT14=
EXTT15=
EXTT16=
EXTT17=
PLAYORDER=
